<?xml version="1.0" encoding="utf-8"?>
<!-- Generator: Adobe Illustrator 18.1.0, SVG Export Plug-In . SVG Version: 6.00 Build 0)  -->
<!DOCTYPE svg PUBLIC "-//W3C//DTD SVG 1.1//EN" "http://www.w3.org/Graphics/SVG/1.1/DTD/svg11.dtd">
<svg version="1.1" id="Layer_1" xmlns="http://www.w3.org/2000/svg" xmlns:xlink="http://www.w3.org/1999/xlink" x="0px" y="0px"
	 viewBox="0 0 300 300" enable-background="new 0 0 300 300" xml:space="preserve">
<g>
	<path class="circle" fill-rule="evenodd" clip-rule="evenodd" fill="#3E44B5" d="M298.6,150.4c0,82-92,148.5-148.5,148.5
		c-82,0-148.5-66.5-148.5-148.5S68.1,1.8,150.1,1.8S298.6,68.3,298.6,150.4z"/>
	<g>
		<g>
			<path class="bucket" fill-rule="evenodd" clip-rule="evenodd" fill="#FFFFFF" d="M205.6,126.9l-9.9,56.1c-3,0-6.1,0-9.2-0.1
				c-14.2-0.5-28.6-2.8-39.7-8c-9.1-4.3-16.1-10.6-18.7-19.6c2.5-2,4.1-5.1,4.1-8.6c0-6.1-5-11.1-11.1-11.1s-11.1,5-11.1,11.1
				c0,5.6,4.1,10.2,9.5,10.9c3.3,11.8,12,19.9,23.5,25.3c12.3,5.8,27.8,8.3,43.1,8.8c2.7,0.1,5.4,0.1,8.1,0.1l-2.1,13.8H71.7
				l-13.5-78.7H205.6L205.6,126.9z M190.9,214.6l-1.1,8.3h-116l-1.1-8.3H190.9L190.9,214.6z M188.7,230.8
				c-2.3,7.9-1.2,16.5-11.6,16.5H86.7c-10.5,0-9.3-8.5-11.6-16.5H188.7L188.7,230.8z"/>
			<path class="bottle" fill-rule="evenodd" clip-rule="evenodd" fill="#FFFFFF" d="M214.6,70.9c14.6-13.4,16.8-24.1,28.2-12.4l0.5,0.5l0,0l0.5,0.6
				l0,0l0.5,0.6l0,0l0.5,0.6c10.6,12.4-0.3,13.6-15.1,26.9l0,0L214.6,70.9L214.6,70.9L214.6,70.9z M201.6,82.2
				c-10.9,7.5-18.7,8.7-27.6,12c-7.8,2.9-16.9,7.1-30.5,17.7c-2.7,2.1-5.6,4.4-8.7,7h71.1c2.6-6,5.3-12.1,11.5-19.4
				c1.6-1.9,3.4-3.8,5.5-5.9l0,0L208,77.4l0,0C205.7,79.2,203.6,80.8,201.6,82.2L201.6,82.2z"/>
		</g>
	</g>
</g>
<style>

</style>
</svg>
