<?xml version="1.0" encoding="utf-8"?>
<!-- Generator: Adobe Illustrator 18.1.0, SVG Export Plug-In . SVG Version: 6.00 Build 0)  -->
<!DOCTYPE svg PUBLIC "-//W3C//DTD SVG 1.1//EN" "http://www.w3.org/Graphics/SVG/1.1/DTD/svg11.dtd">
<svg version="1.1" id="Layer_1" xmlns="http://www.w3.org/2000/svg" xmlns:xlink="http://www.w3.org/1999/xlink" x="0px" y="0px"
	 viewBox="0 0 142.8 23.3" enable-background="new 0 0 142.8 23.3" xml:space="preserve">
<g>
	<g>
		<path fill="#FFFFFF" d="M9.2,11.7l-0.7-0.5l1-0.7c0.5-0.3,0.6-1,0.6-1.5V3.5c0-1.2-0.8-2-2-2H1.5v20.6h6.6c1.3,0,2.1-0.8,2.1-2
			v-6.6C10.2,12.7,9.9,12.1,9.2,11.7z M4.7,9.6V4.3h2.1v4.8L6.1,9.6H4.7z M4.7,12.9h1.4L7,13.5v5.7H4.7V12.9z"/>
		<path fill="#FFFFFF" d="M20.2,1.5h-5.6c-0.8,0-1.9,0.7-1.9,2v16.7c0,1.3,1.1,2,1.9,2h5.6c0.8,0,1.9-0.7,1.9-2V3.4
			C22.1,2.2,21,1.5,20.2,1.5z M18.9,4.3v14.9h-3V4.3H18.9z"/>
		<polygon fill="#FFFFFF" points="23.6,4.3 26.3,4.3 26.3,22.1 29.5,22.1 29.5,4.3 31.6,4.3 31.6,1.5 23.6,1.5 		"/>
		<polygon fill="#FFFFFF" points="33.2,4.3 35.3,4.3 35.3,22.1 38.5,22.1 38.5,4.3 41.3,4.3 41.3,1.5 33.2,1.5 		"/>
		<polygon fill="#FFFFFF" points="45.5,1.5 42.3,1.5 42.3,22.1 50,22.1 50,19.2 45.5,19.2 		"/>
		<polygon fill="#FFFFFF" points="54.8,13 58.4,13 58.4,10.1 54.8,10.1 54.8,4.3 58.7,4.3 58.7,1.5 51.6,1.5 51.6,22.1 58.7,22.1 
			58.7,19.2 54.8,19.2 		"/>
		<path fill="#FFFFFF" d="M67.4,1.5h-4.2c-1,0-1.9,0.9-1.9,2v4.2c0,0.6,0.3,1.1,0.6,1.5l4.2,6v4.1h-1.5v-4.7h-3.2v5.5
			c0,1.3,1,2,1.9,2h4.2c1.1,0,1.9-0.8,1.9-2v-5.2c0-0.6-0.3-1.2-0.7-1.9l-4-5.6V4.3h1.5v3.6h3.2V3.5C69.3,2.3,68.6,1.5,67.4,1.5z"/>
		<polygon fill="#FFFFFF" points="86.7,1.5 85.2,12.2 83.9,1.5 81,1.5 79.7,12.1 78.5,1.5 75.3,1.5 78.2,22.1 81.1,22.1 82.4,11.9 
			83.8,22.1 86.7,22.1 89.8,1.5 		"/>
		<path fill="#FFFFFF" d="M92.5,1.5l-3.8,20.6h3.2l0.6-3.9h3l0.6,3.9h3.3L95.7,1.5H92.5z M95.1,15.3H93l1.1-5.9L95.1,15.3z"/>
		<rect x="100.8" y="1.5" fill="#FFFFFF" width="3.2" height="20.6"/>
		<polygon fill="#FFFFFF" points="105.5,4.3 108.3,4.3 108.3,22.1 111.5,22.1 111.5,4.3 114.3,4.3 114.3,1.5 105.5,1.5 		"/>
		<rect x="115.8" y="1.5" fill="#FFFFFF" width="3.2" height="20.6"/>
		<polygon fill="#FFFFFF" points="127.7,11.1 123.7,1.5 121.8,1.5 121.8,22.1 124.8,22.1 124.8,12.8 128.8,22.1 130.8,22.1 
			130.8,1.5 127.7,1.5 		"/>
		<path fill="#FFFFFF" d="M141.8,8.1V3.5c0-1.2-0.7-2-1.9-2h-4.9c-1.1,0-1.9,0.8-1.9,2v16.6c0,1.2,0.8,2,1.9,2h4.9
			c1.2,0,1.9-0.7,1.9-1.9v-9.1h-4.6v2.8h1.4v5.3h-2.2V4.3h2.2v3.8H141.8z"/>
	</g>
</g>
</svg>
