<?xml version="1.0" encoding="UTF-8"?>
<!DOCTYPE svg PUBLIC "-//W3C//DTD SVG 1.1//EN" "http://www.w3.org/Graphics/SVG/1.1/DTD/svg11.dtd">
<svg version="1.1" xmlns="http://www.w3.org/2000/svg" xmlns:xlink="http://www.w3.org/1999/xlink" width="30" height="33"  xml:space="preserve">
    <g id="group">
        <g id="group2">
            <path id="bezier" stroke="none" fill="rgb(255, 255, 255)" d="M 28.45,22.48 C 25.48,21.14 22.29,20.29 19.04,19.93 19.15,19.2 19.26,18.47 19.37,17.74 20.09,17.31 20.6,16.67 20.65,16.14 20.74,15.45 20.82,14.78 20.9,14.11 21.01,14.2 21.14,14.28 21.29,14.29 21.64,14.32 21.94,14.09 21.97,13.76 L 22.32,10.65 C 22.36,10.32 22.1,10.04 21.76,10 21.64,9.99 21.51,10.02 21.39,10.07 21.47,9.48 21.55,8.89 21.62,8.29 21.68,7.48 22.1,5.31 20.45,3.91 18.04,1.69 12.76,1.69 10.36,3.91 8.7,5.31 9.13,7.48 9.19,8.29 9.26,8.89 9.33,9.48 9.41,10.07 9.3,10.02 9.17,9.99 9.04,10 8.7,10.04 8.45,10.32 8.48,10.65 L 8.83,13.76 C 8.87,14.09 9.17,14.32 9.51,14.29 9.66,14.28 9.8,14.2 9.9,14.11 9.98,14.78 10.07,15.45 10.15,16.14 10.2,16.67 10.71,17.31 11.44,17.74 11.55,18.47 11.65,19.2 11.76,19.93 8.52,20.29 5.33,21.14 2.35,22.48 1.39,22.95 0.71,24.19 0.82,25.14 0.92,26.24 1.04,27.33 1.16,28.43 1.27,29.39 2.13,30.33 3.09,30.5 11.26,31.74 19.54,31.74 27.71,30.5 28.67,30.33 29.54,29.39 29.64,28.43 29.76,27.33 29.87,26.24 29.99,25.14 30.09,24.19 29.42,22.95 28.45,22.48 Z M 28.45,22.48" />
        </g>
    </g>
</svg>
