<?xml version="1.0" encoding="UTF-8"?>
<!DOCTYPE svg PUBLIC "-//W3C//DTD SVG 1.1//EN" "http://www.w3.org/Graphics/SVG/1.1/DTD/svg11.dtd">
<svg version="1.1" xmlns="http://www.w3.org/2000/svg" xmlns:xlink="http://www.w3.org/1999/xlink" width="40" height="40"  xml:space="preserve">
    <g id="group">
        <g id="group2">
            <path id="bezier" stroke="none" fill="rgb(255, 255, 255)" d="M 17.61,1.08 C 9.77,1.08 3.38,7.55 3.38,15.5 3.38,23.46 9.77,29.93 17.61,29.93 25.46,29.93 31.84,23.46 31.84,15.5 31.84,7.55 25.46,1.08 17.61,1.08 Z M 17.61,24.75 C 12.58,24.75 8.5,20.61 8.5,15.5 8.5,10.4 12.58,6.26 17.61,6.26 22.65,6.26 26.73,10.4 26.73,15.5 26.73,20.61 22.65,24.75 17.61,24.75 Z M 17.61,24.75" />
            <g id="group3">
                <path id="bezier2" stroke="none" fill="rgb(255, 255, 255)" d="M 37.18,38.62 C 36.76,38.62 36.34,38.46 36.03,38.13 L 24.47,25.94 C 23.87,25.31 23.9,24.31 24.53,23.71 25.17,23.11 26.18,23.13 26.77,23.77 L 38.33,35.96 C 38.93,36.59 38.9,37.59 38.26,38.19 37.96,38.48 37.56,38.62 37.18,38.62 L 37.18,38.62 Z M 37.18,38.62" />
            </g>
            <g id="group4">
                <path id="bezier3" stroke="none" fill="rgb(255, 255, 255)" d="M 36.86,39.79 C 36.04,39.79 35.23,39.46 34.62,38.79 L 27.91,31.42 C 26.74,30.14 26.79,28.12 28.03,26.91 29.26,25.7 31.21,25.75 32.37,27.03 L 39.09,34.41 C 40.26,35.69 40.2,37.71 38.97,38.92 38.37,39.5 37.62,39.79 36.86,39.79 L 36.86,39.79 Z M 36.86,39.79" />
            </g>
        </g>
    </g>
</svg>
